<?xml version="1.0" encoding="UTF-8" standalone="no"?>
<svg
   version="1.1"
   width="49.99992"
   height="50"
   viewBox="0 0 49.999921 50"
   xml:space="preserve"
   id="svg3"
   xmlns="http://www.w3.org/2000/svg"
   xmlns:svg="http://www.w3.org/2000/svg">
<desc
   id="desc1">Created with Fabric.js 3.5.0</desc>
<defs
   id="defs1" />

<g
   transform="matrix(0.28541551,0,0,0.28541551,25.547797,25.536695)"
   id="280106"
   clip-path="url(#CLIPPATH_5)"
   style="fill:#000000">
<clipPath
   id="CLIPPATH_5">
	<rect
   transform="translate(1e-4,2e-4)"
   id="clip0_302_100"
   x="-79"
   y="-79"
   rx="0"
   ry="0"
   width="158"
   height="158" />
</clipPath>
<path
   style="opacity:1;fill:#000000;fill-rule:nonzero;stroke:none;stroke-width:1;stroke-linecap:butt;stroke-linejoin:miter;stroke-miterlimit:4;stroke-dasharray:none;stroke-dashoffset:0"
   vector-effect="non-scaling-stroke"
   transform="translate(-78.9999,-78.9998)"
   d="M 154.685,3.67219e-4 H 3.31409 C 1.48378,3.67219e-4 0,1.48415 0,3.31478 V 154.686 C 0,156.516 1.48378,158 3.31409,158 H 154.685 c 1.83,0 3.314,-1.484 3.314,-3.314 V 3.31478 c 0.001,-0.04566 0.001,-0.09131 0,-0.13665 -0.037,-1.7929 -1.521,-3.2154914 -3.314,-3.177762781 z"
   stroke-linecap="round"
   id="path1" />
</g>
<g
   transform="matrix(0.18038015,0,0,0.23856842,30.740805,34.577884)"
   id="819028"
   style="fill:#ffffff">
		
<path
   xml:space="preserve"
   font-family="Archivo"
   font-size="145px"
   font-style="normal"
   font-weight="bold"
   style="white-space:pre;opacity:1;fill:#ffffff;fill-rule:nonzero;stroke:none;stroke-width:1;stroke-linecap:butt;stroke-linejoin:miter;stroke-miterlimit:4;stroke-dasharray:none;stroke-dashoffset:0"
   d="m -47.7,47.29 v 0 q -11.46,0 -19.51,-3.41 -8.04,-3.4 -12.32,-10.22 -4.28,-6.81 -4.28,-17.25 v 0 -4.5 h 21.17 v 4.5 q 0,6.67 3.7,9.93 3.69,3.26 11.09,3.26 v 0 q 7.1,0 10.73,-4.71 3.62,-4.71 3.62,-13.56 v 0 -65.25 h 21.75 v 65.25 q 0,12.04 -4.2,20.08 -4.21,8.05 -12.25,11.97 -8.05,3.91 -19.5,3.91 z"
   id="path2" /><path
   xml:space="preserve"
   font-family="Archivo"
   font-size="145px"
   font-style="normal"
   font-weight="bold"
   style="white-space:pre;opacity:1;fill:#ffffff;fill-rule:nonzero;stroke:none;stroke-width:1;stroke-linecap:butt;stroke-linejoin:miter;stroke-miterlimit:4;stroke-dasharray:none;stroke-dashoffset:0"
   d="m 39.88,47.29 v 0 q -8.71,0 -16.54,-1.74 Q 15.52,43.81 9.5,39.97 3.48,36.13 0.07,30.25 -3.33,24.38 -3.33,15.97 v 0 q 0,-0.72 0,-1.52 0,-0.8 0.14,-1.23 v 0 h 21.46 q -0.14,0.43 -0.14,1.16 0,0.72 0,1.3 v 0 q 0,4.64 2.53,7.83 2.54,3.19 7.47,4.79 4.93,1.59 11.45,1.59 v 0 q 4.21,0 7.47,-0.51 3.26,-0.5 5.8,-1.45 2.54,-0.94 4.21,-2.24 1.66,-1.31 2.46,-3.05 0.8,-1.74 0.8,-3.91 v 0 q 0,-3.92 -2.54,-6.38 Q 55.24,9.88 50.82,8.14 46.4,6.4 40.89,4.95 35.38,3.5 29.58,1.98 23.78,0.46 18.27,-1.79 12.76,-4.04 8.41,-7.23 4.06,-10.42 1.45,-15.35 -1.16,-20.28 -1.16,-27.24 v 0 q 0,-7.39 3.12,-12.76 3.11,-5.36 8.77,-8.84 5.65,-3.48 13.05,-5.15 7.39,-1.67 16.1,-1.67 v 0 q 8.11,0 15.36,1.67 7.25,1.67 12.76,5.29 5.52,3.63 8.63,9.14 3.12,5.51 3.12,13.05 v 0 1.74 H 58.72 v -1.16 q 0,-3.92 -2.31,-6.67 -2.33,-2.76 -6.53,-4.35 -4.21,-1.6 -9.86,-1.6 v 0 q -6.09,0 -10.37,1.16 -4.27,1.16 -6.52,3.41 -2.25,2.25 -2.25,5.29 v 0 q 0,3.48 2.54,5.73 2.53,2.25 6.96,3.91 4.42,1.67 9.93,2.98 5.51,1.3 11.31,2.9 5.8,1.59 11.31,3.77 5.51,2.17 9.86,5.43 4.35,3.27 6.96,8.05 2.61,4.79 2.61,11.46 v 0 q 0,11.45 -5.51,18.41 -5.51,6.96 -15.08,10.15 -9.57,3.19 -21.89,3.19 z"
   id="path3" /></g>
</svg>
