<svg class="icon" viewBox="-18.05 -18.05 292.1 397.1" xmlns="http://www.w3.org/2000/svg" preserveAspectRatio="xMidYMid">
  <g stroke-linecap="round" stroke-linejoin="round" stroke="#fafafa" stroke-width="14.448">
    <path fill="#e6a329" d="M256.086 70.72H.445l23.966 259.887 103.841 29.452 103.842-29.452Z"/>
    <path fill="#f1bf22" d="M128.252 91.893v246.143l84.136-23.836 20.467-222.307Z"/>
    <path fill="#fff" d="M195.187 123.776H65.824l-9.01 97.295h109.9l-3.579 41.166-35.065 10.087-35.582-10.25-2.132-24.916H65.824l4.608 49.786 65.405 18.568 57.668-18.568 9.01-97.724H86.065l1.496-32.56h80.924l1.21 18.656h32.573Z"/>
    <path fill="#ebebeb" d="M128.282 123.776H65.824l-9.01 97.295h71.279v-31.74h-37.48l1.497-32.56h36.172ZM90.613 236.569H58.24l4.608 49.76 65.405 18.548v-33.112L92.67 261.488Z"/>
    <path d="M103.395 32.387H80.637v16.339h39.048V.202h-16.27ZM175.885.462h-39.673v16.986c5.297 5.298 8.06 7.846 15.863 15.519h-15.863v15.489h39.67V32.993l-15.848-15.519h15.863Z"/>
    <path d="M256.086 70.72H.445l23.966 259.887 103.841 29.452 103.842-29.452Zm-152.69-38.333h-22.76v16.339h39.049V.202h-16.27ZM175.883.462h-39.672v16.986c5.297 5.298 8.06 7.846 15.863 15.519h-15.863v15.489h39.67V32.993l-15.848-15.519h15.863Z" fill="none"/>
  </g>
  <path fill="#e6a329" d="M256.086 70.72H.445l23.966 259.887 103.841 29.452 103.842-29.452Z"/>
  <path fill="#f1bf22" d="M128.252 91.893v246.143l84.136-23.836 20.467-222.307Z"/>
  <path fill="#fff" d="M195.187 123.776H65.824l-9.01 97.295h109.9l-3.579 41.166-35.065 10.087-35.582-10.25-2.132-24.916H65.824l4.608 49.786 65.405 18.568 57.668-18.568 9.01-97.724H86.065l1.496-32.56h80.924l1.21 18.656h32.573Z"/>
  <path fill="#ebebeb" d="M128.282 123.776H65.824l-9.01 97.295h71.279v-31.74h-37.48l1.497-32.56h36.172ZM90.613 236.569H58.24l4.608 49.76 65.405 18.548v-33.112L92.67 261.488Z"/>
  <path d="M103.395 32.387H80.637v16.339h39.048V.202h-16.27ZM175.885.462h-39.673v16.986c5.297 5.298 8.06 7.846 15.863 15.519h-15.863v15.489h39.67V32.993l-15.848-15.519h15.863Z"/>
</svg>
